<svg version="1.1" id="Layer_1" xmlns="http://www.w3.org/2000/svg" xmlns:xlink="http://www.w3.org/1999/xlink" x="0px" y="0px" viewBox="-426.9 -128.7 983.8 196.7" style="enable-background:new -426.9 -128.7 983.8 196.7;" xml:space="preserve">
 <style type="text/css">
  .st0{fill:#fff;}
	.st1{fill:#F94A29;}
 </style>
 <g>
  <path class="st0" d="M-278.6,7.8l24.9,21.3c-4.8,6.6-10.5,12.5-17,17.5c-8.1,6.4-17.2,11.5-26.8,15.2c-10.7,4.1-22.1,6.2-33.5,6.1
		c-17.4,0.3-34.6-4.1-49.7-12.7c-14.2-8.3-25.9-20.3-33.8-34.6c-8.3-15.3-12.6-32.5-12.2-49.9c-0.1-13.1,2.2-26,6.9-38.2
		c4.6-11.7,11.4-22.4,20.1-31.6c8.6-9.1,18.9-16.3,30.4-21.3c12.4-5.3,25.8-7.9,39.4-7.8c16.1-0.6,32.2,3.1,46.4,10.8
		c11.7,6.8,21.9,15.9,29.9,26.9l-25.1,22.2c-5.6-8.2-12.7-15.2-20.9-20.8c-9.1-5.5-19.6-8.2-30.2-7.8c-11.3-0.3-22.4,2.9-31.8,9.1
		c-9,6.2-16.1,14.7-20.7,24.7c-4.9,10.4-7.4,21.8-7.3,33.3c-0.1,11.2,2.4,22.3,7.3,32.4c4.5,9.4,11.4,17.4,20.1,23.3
		c9,5.9,19.7,8.8,30.4,8.6c9.1,0.4,18.1-1.2,26.5-4.7c6-2.7,11.5-6.4,16.2-11.1L-278.6,7.8">
  </path>
  <path class="st0" d="M-244-2.7c-0.1-12.2,3-24.2,8.9-34.9c6-10.6,14.6-19.3,25.1-25.5c11.4-6.2,24.2-9.4,37.1-9.4
		c13,0,25.8,3.2,37.1,9.4c10.5,6.1,19.2,14.9,25.1,25.5c5.9,10.7,8.9,22.7,8.9,34.9c0,12.2-3.1,24.2-8.9,34.9
		c-6.4,10.8-15.4,19.7-26.3,25.9c-10.9,6.2-23.3,9.5-35.8,9.5c-12.6,0-25-3.2-35.9-9.4c-10.9-6.2-20.1-15.1-26.5-25.8
		c-6-10.7-9.1-22.7-8.9-34.9V-2.7z M-173.1,39.2c7.5,0.3,14.9-2,20.9-6.4c5.5-4.2,9.9-9.7,12.6-16.1c2.7-6,4.1-12.5,4.2-19.1
		c-0.1-6.6-1.5-13.1-4.2-19.1c-2.7-6.3-7-11.9-12.6-16.1c-6.2-4.2-13.5-6.4-20.9-6.4c-7.5,0-14.8,2.2-20.9,6.4
		c-5.4,4.1-9.6,9.6-12.3,15.8c-2.7,6-4.1,12.5-4.2,19.1c0.1,6.7,1.5,13.3,4.2,19.4c2.7,6.4,7,11.9,12.6,16.1
		c6.1,4.4,13.4,6.7,20.9,6.4">
  </path>
  <path class="st0" d="M-94.9-123.8h33.2v34.9h-33.2V-123.8z M-94.9-68.3h33.2V63.3h-33.2V-68.3z">
  </path>
  <path class="st0" d="M-48.5,63.3V-68.1h31.8l0.8,15c4.4-4.5,9.4-8.4,14.8-11.6c7.6-4.4,16.3-6.5,25.1-6.1c7-0.4,14,0.6,20.5,3.2
		c6.5,2.5,12.4,6.5,17.2,11.5C71-45,75.7-30.9,74.9-16.5v79.8H41.4v-79.5c0.2-3.5-0.3-7.1-1.5-10.4c-1.2-3.3-3.1-6.4-5.5-9
		c-2.3-2.3-5.1-4.1-8.2-5.3c-3.1-1.2-6.4-1.7-9.7-1.6c-4.3-0.1-8.6,0.7-12.6,2.4c-4,1.7-7.5,4.3-10.3,7.5c-6,6.8-9.2,15.6-8.9,24.7
		v71.2L-48.5,63.3z">
  </path>
  <path class="st1" d="M485.4-37l58.7-86.8h-55.6l-30.4,48.5l-31.3-48.5h-61.4l2.8,3.9l-2-0.8c-14.5-5.5-30-8.2-45.5-8
		c-17.9-0.3-35.6,4.2-51.1,13c-11.1,6.5-20.7,15.1-28.2,25.5c-8.2-10.1-18.7-18.1-30.7-23.3c-16.4-6.9-34.1-10.3-51.9-10H86.4V63.3
		h72c17.9,0.3,35.6-3.2,51.9-10.3c11.9-5.1,22.5-13,30.7-23c7.6,10.4,17.4,19.1,28.8,25.5c15.5,8.5,33.1,12.8,50.8,12.5
		c16.8,0.3,33.4-3.3,48.6-10.5l-3.9,5.8h54.7l36.6-57.4l37.7,57.4h62.6L485.4-37z M194.7,5.6c-5,4.8-11,8.5-17.6,10.9
		c-6.5,2.4-13.5,3.4-20.5,3h-20.4v-99.7h20.4c7.1-0.6,14.3,0.3,21.1,2.7c6.7,2.4,12.9,6.2,18,11.1c8.7,10,13.1,22.9,12.6,36
		c0.3,6.6-0.8,13.2-3.1,19.4C202.9-4.8,199.3,0.9,194.7,5.6L194.7,5.6z M394.9,19.2L371.2-2.9c-5.6,7.2-12.4,13.3-20.1,18
		c-8.3,4.2-17.5,6.2-26.8,5.8c-9.2,0.2-18.3-2.1-26.2-6.6c-7.5-4.4-13.5-10.9-17.4-18.6c-4.2-8.3-6.3-17.6-6.1-26.9
		c-0.2-9.1,1.8-18.1,5.9-26.3c3.8-7.6,9.7-14.1,17-18.6c8.2-4.8,17.6-7.2,27.1-6.9c8.8-0.2,17.5,2,25.1,6.4
		c7.5,4.4,13.9,10.2,19,17.2L393.5-84l36.3,51.8L394.9,19.2z">
  </path>
 </g>
</svg>