<svg id="Layer_1" data-name="Layer 1" xmlns="http://www.w3.org/2000/svg" viewBox="0 0 201.88 58.77"><title>Swiggy logo - Brandlogos.net</title><path d="M323.93,419.77l-.12-.1a155.82,155.82,0,0,1-9.55-13.4c-1.34-2.24-2.21-4-2-4.44.44-1.18,8.21-1.82,10.61-.75.73.32.71.75.71,1,0,1.08-.05,4-.05,4a1.08,1.08,0,1,0,2.16,0v-7.2h0c0-.62-.68-.78-.81-.8H318.3c-6,0-7.36.25-8.38-.42-2.21-1.45-5.83-11.21-5.92-16.7a19.9,19.9,0,0,1,39.67-2.25v0c.21,2.4-13,2.91-15.65,2.21a.73.73,0,0,1-.5-.7c0-1.83,0-7,0-7a1.08,1.08,0,0,0-1.08-1.08h0a1.08,1.08,0,0,0-1.08,1.08l0,9.47a.81.81,0,0,0,.66.78h8.21c4.38,0,6.22.51,7.45,1.44.81.62,1.13,1.81.85,3.36C340.08,402,324.51,419.06,323.93,419.77Zm42.23-32.08c3.93,1.68,6.36,3.55,6.36,7.65s-3.17,6.89-8.08,6.89c-4,0-7.17-1.8-8.76-4.95l-.26-.51,4.68-2.71.31.5a4.3,4.3,0,0,0,3.94,2.46c1.47,0,2.46-.65,2.46-1.62s-.72-1.48-2.93-2.45l-1.12-.48c-3-1.28-5.78-3.06-5.78-7.36,0-3.87,3-6.57,7.21-6.57a7.29,7.29,0,0,1,6.94,3.92l.28.5-4.53,2.91-.31-.56c-.76-1.36-1.47-1.63-2.38-1.63s-1.56.52-1.56,1.33.45,1.34,2.41,2.19Zm33.11.79,3.3-9.21h5.67l-8.4,23.34h-1.26l-5.1-10.93c-.24-.5-.48-1.12-.69-1.69-.22.57-.47,1.19-.7,1.7l-5.29,10.93h-1.25L377,379.27h6.05l3.34,9.21c.21.59.43,1.3.62,2a18.18,18.18,0,0,1,.78-2l4.38-9.34h1.21l4.45,9.35a18.15,18.15,0,0,1,.78,2C398.84,389.78,399.06,389.06,399.27,388.48Zm15.58,13.46V378.79h5.72v23.15Zm24.48-7.78V389h10.62v10.37l-.22.18a14.71,14.71,0,0,1-8.8,2.69c-7.36,0-12.5-4.88-12.5-11.86a11.43,11.43,0,0,1,11.79-11.83c3.76,0,6.51,1.06,8.42,3.24l.37.43-3.9,3.86-.42-.44a5.48,5.48,0,0,0-4.47-1.82c-3.5,0-5.95,2.7-5.95,6.56,0,4,2.61,6.63,6.65,6.63a10.93,10.93,0,0,0,3.69-.6v-2.23Zm29,0V389h10.62v10.37l-.22.18a14.71,14.71,0,0,1-8.8,2.69c-7.36,0-12.5-4.88-12.5-11.86a11.43,11.43,0,0,1,11.79-11.83c3.76,0,6.51,1.06,8.42,3.24l.37.43-3.9,3.86-.42-.44a5.48,5.48,0,0,0-4.47-1.82c-3.5,0-5.94,2.7-5.94,6.56,0,4,2.61,6.63,6.66,6.63a10.92,10.92,0,0,0,3.69-.6v-2.23Zm31.58-15.37h6l-8.21,15.4v7.75h-5.75v-7.42l-8.74-15.73h6.38l4,7.38a27.78,27.78,0,0,1,1.23,2.73,26.26,26.26,0,0,1,1.19-2.72Z" transform="translate(-304 -361)" style="fill:#fc8019"/></svg>