<svg id="Layer_1" data-name="Layer 1" xmlns="http://www.w3.org/2000/svg" width="1580" height="568"
     viewBox="0 0 1680 568">
  <defs>
    <style>.cls-1{fill:#fff;}.cls-2{fill:#e83d4c;}</style>
  </defs>
  <path class="cls-1"
        d="M502.84,136.3h40v23a79.73,79.73,0,0,1,13.4-14.3,50.56,50.56,0,0,1,14.9-8.4,54.14,54.14,0,0,1,18.3-2.9q22,0,39.2,10a86.15,86.15,0,0,1,29,28.2q11.6-18.4,29-28.3t39-9.9q25,0,44.8,12.7a86.49,86.49,0,0,1,30.8,34.4,103.59,103.59,0,0,1,11,47.5v108h-40v-108a65.33,65.33,0,0,0-5.7-27.6,47.44,47.44,0,0,0-16.3-19.7,42.3,42.3,0,0,0-24.6-7.3,43.81,43.81,0,0,0-24.8,7.3,49,49,0,0,0-17.1,19.8,61.8,61.8,0,0,0-6.1,27.5v108h-40v-108a61.06,61.06,0,0,0-6.2-27.5,49.89,49.89,0,0,0-17.2-19.8,43.83,43.83,0,0,0-24.8-7.3,39.52,39.52,0,0,0-23.8,7.7,52.65,52.65,0,0,0-16.7,20.6,64.86,64.86,0,0,0-6.1,28.1V336.3h-40Z"/>
  <path class="cls-1"
        d="M1048.24,136.3v200h-40V305.9a77.19,77.19,0,0,1-26.6,26.1q-16.2,9.5-37,9.5a102,102,0,0,1-52.7-14.2,106.44,106.44,0,0,1-38.3-38.3,105.45,105.45,0,0,1,0-105.7,106.25,106.25,0,0,1,38.3-38.4,101.89,101.89,0,0,1,52.7-14.2q20.79,0,37,9.5a77.19,77.19,0,0,1,26.6,26.1v-30ZM945,302.9q17.6,0,31.2-9a60.7,60.7,0,0,0,21.1-24.1,74.26,74.26,0,0,0,7.5-33.5,75.33,75.33,0,0,0-7.5-33.8,59.83,59.83,0,0,0-21.1-24.1q-13.61-8.9-31.2-8.9a61.16,61.16,0,0,0-32.4,9,67.22,67.22,0,0,0-32.2,57.8,65.44,65.44,0,0,0,8.8,33.4,67,67,0,0,0,23.7,24.2A61,61,0,0,0,945,302.9Z"/>
  <path class="cls-1" d="M1138.24,136.3v200h-40v-200Z"/>
  <path class="cls-1" d="M1188.24,36.3H1228V336.1h-39.8Z"/>
  <path class="cls-1"
        d="M1232.44,436.3v-40a45.82,45.82,0,0,0,23-5.9,44.84,44.84,0,0,0,16.5-16,42.68,42.68,0,0,0,6.1-22.5V136.3h40V351.9a82.22,82.22,0,0,1-11.4,42.4,84.78,84.78,0,0,1-74.2,42Z"/>
  <path class="cls-1"
        d="M1540,190.8q-12.19-27.5-36-43.8t-53.8-16.3a93.24,93.24,0,0,0-50.1,14.2,103.89,103.89,0,0,0-36.4,38.4,110,110,0,0,0,0,105.6,103.89,103.89,0,0,0,36.4,38.4,95.42,95.42,0,0,0,87.4,6.6,99.68,99.68,0,0,0,31.4-21.3,108.23,108.23,0,0,0,21.9-31.5H1493.4a59.85,59.85,0,0,1-14.76,12.7,52.31,52.31,0,0,1-28.4,7.7,56.86,56.86,0,0,1-26.9-6.8,56,56,0,0,1-19.9-18.2,67.56,67.56,0,0,1-10.4-26.2h156Q1552.24,218.31,1540,190.8Zm-148.2,28.9a65.12,65.12,0,0,1,10.5-27.3,60.58,60.58,0,0,1,20.8-19.3,55.27,55.27,0,0,1,54.2.2,61.78,61.78,0,0,1,21,19.5,62.72,62.72,0,0,1,10.3,26.9Z"/>
  <path class="cls-1" d="M1634.7,176.1V336.3h-40l.2-160.2h-27.4v-40h27.4l-.2-62.6h40v62.6h42.8v40Z"/>
  <circle class="cls-1" cx="1118.37" cy="87.13" r="21.2"/>
  <circle class="cls-1" cx="1298.04" cy="87.13" r="21.2"/>
  <path class="cls-2"
        d="M1.89,181l151.35,68.88,30.48-30.49-77.47-35.26L346.41,91.7,254.07,331.81l-35-77.1-30.51,30.5,1.61,3.55,67,147.54L416.73,21.4Z"/>
 
</svg>
