<svg xmlns:dc="http://purl.org/dc/elements/1.1/" xmlns:cc="http://creativecommons.org/ns#" xmlns:rdf="http://www.w3.org/1999/02/22-rdf-syntax-ns#" xmlns:svg="http://www.w3.org/2000/svg" xmlns="http://www.w3.org/2000/svg" viewBox="0 0 246.66667 231.54668" height="231.54668" width="246.66667" xml:space="preserve" id="svg2" version="1.1" xmlns:xlink="http://www.w3.org/1999/xlink">
 <metadata id="metadata8">
  <rdf:RDF>
   <cc:Work rdf:about="">
    <dc:format>
     image/svg+xml
    </dc:format>
    <dc:type rdf:resource="http://purl.org/dc/dcmitype/StillImage">
    </dc:type>
   </cc:Work>
  </rdf:RDF>
 </metadata>
 <defs id="defs6">
 </defs>
 <g transform="matrix(1.3333333,0,0,-1.3333333,0,231.54667)" id="g10">
  <g transform="scale(0.1)" id="g12">
   <path id="path14" style="fill:#ffffff;fill-opacity:1;fill-rule:nonzero;stroke:none" d="M 1561.5,1504.82 H 712.832 V 1080.49 H 288.496 V 231.82 h 848.674 v 424.328 h 424.33 v 848.672">
   </path>
   <path id="path16" style="fill:#bcf7d1;fill-opacity:1;fill-rule:nonzero;stroke:none" d="m 288.492,656.148 v 0 424.342 h 424.34 v 0 H 288.496 V 656.148">
   </path>
   <path id="path18" style="fill:#ffffff;fill-opacity:1;fill-rule:nonzero;stroke:none" d="M 1137.17,231.82 H 712.836 V 656.148 H 288.492 l 0.004,424.342 h 424.336 0.004 V 656.148 H 1137.17 V 231.82">
   </path>
   <path id="path20" style="fill:#bcf7d1;fill-opacity:1;fill-rule:nonzero;stroke:none" d="M 1137.17,231.82 H 712.836 V 656.148 H 288.492 l 0.004,424.342 h 424.336 0.004 V 656.148 H 1137.17 V 231.82">
   </path>
   <path id="path22" style="fill:#49de80;fill-opacity:1;fill-rule:nonzero;stroke:none" d="M 288.496,231.82 H 712.832 V 656.148 H 288.496 Z">
   </path>
   <path id="path24" style="fill:#49de80;fill-opacity:1;fill-rule:nonzero;stroke:none" d="m 1561.51,656.148 v 0 l -0.01,424.342 h 0.01 V 656.148 m -424.34,848.672 h -424.338 0.004 424.334">
   </path>
   <path id="path26" style="fill:#ffffff;fill-opacity:1;fill-rule:nonzero;stroke:none" d="M 1561.51,656.148 H 1137.17 V 1080.49 H 712.836 v 424.33 h 424.334 v -424.33 h 424.34 l -0.01,-424.342">
   </path>
   <path id="path28" style="fill:#49de80;fill-opacity:1;fill-rule:nonzero;stroke:none" d="M 1561.51,656.148 H 1137.17 V 1080.49 H 712.836 v 424.33 h 424.334 v -424.33 h 424.34 l -0.01,-424.342">
   </path>
   <path id="path30" style="fill:#ffffff;fill-opacity:1;fill-rule:nonzero;stroke:none" d="m 712.836,656.148 h 424.336 v 424.34 H 712.836 Z">
   </path>
   <path id="path32" style="fill:#49de80;fill-opacity:1;fill-rule:nonzero;stroke:none" d="m 712.836,656.148 h 424.336 v 424.34 H 712.836 Z">
   </path>
   <path id="path34" style="fill:#0bb348;;fill-opacity:1;fill-rule:nonzero;stroke:none" d="m 1561.5,1080.49 h -424.33 v 424.33 h 424.33 v -424.33">
   </path>
  </g>
 </g>
</svg>